<?xml version="1.0" encoding="iso-8859-1"?>
<!-- Generator: Adobe Illustrator 19.0.0, SVG Export Plug-In . SVG Version: 6.00 Build 0)  -->
<svg version="1.1" id="Layer_1" xmlns="http://www.w3.org/2000/svg" xmlns:xlink="http://www.w3.org/1999/xlink" x="0px" y="0px"
	 viewBox="0 0 506.4 506.4" style="enable-background:new 0 0 506.4 506.4;" xml:space="preserve">
<path style="fill:#E07D46;" d="M502.4,253.2c0,137.6-111.6,249.2-249.2,249.2S4,390.8,4,253.2S115.6,4,253.2,4
	S502.4,115.6,502.4,253.2z"/>
<g>
	<path style="fill:#F4EFEF;" d="M225.2,145.2V364c0,6.4-4.8,13.2-11.2,13.2h-8.4c-6.4,0-8.4-6.8-8.4-13.2V142.4c0-6.4,2-9.2,8.4-9.2
		h8.4c6.4,0,10.8,5.6,10.8,12"/>
	<path style="fill:#F4EFEF;" d="M309.2,145.2V364c0,6.4-5.6,13.2-12,13.2h-8.4c-6.4,0-7.6-6.8-7.6-13.2V142.4c0-6.4,1.2-9.2,7.6-9.2
		h8.4c6.4,0,10.8,5.6,10.8,12"/>
</g>
<path d="M253.2,506.4C113.6,506.4,0,392.8,0,253.2S113.6,0,253.2,0s253.2,113.6,253.2,253.2S392.8,506.4,253.2,506.4z M253.2,8
	C118,8,8,118,8,253.2s110,245.2,245.2,245.2s245.2-110,245.2-245.2S388.4,8,253.2,8z"/>
<path d="M298.4,385.2h-9.2c-8.8,0-16-7.2-16-15.6V144.8c0-8.4,8-16,16.8-16h7.6c8.4,0,15.6,7.2,15.6,16v224.4
	C313.2,378.4,306.8,385.2,298.4,385.2z M290,137.2c-4.4,0-8.8,3.6-8.8,8V370c0,4,3.6,7.6,8,7.6h9.2c4.4,0,6.8-4,6.8-8V145.2
	c0-4.4-3.2-8-7.6-8H290z"/>
<path d="M216.4,383.2h-9.2c-8.8,0-16-7.2-16-15.6V142.8c0-8.4,8-16,16.8-16h7.6c8.4,0,15.6,7.2,15.6,16v224.4
	C231.2,376.4,224.8,383.2,216.4,383.2z M208,135.2c-4.4,0-8.8,3.6-8.8,8V368c0,4,3.6,7.6,8,7.6h9.2c4.4,0,6.8-4,6.8-8V143.2
	c0-4.4-3.2-8-7.6-8H208z"/>
<g>
</g>
<g>
</g>
<g>
</g>
<g>
</g>
<g>
</g>
<g>
</g>
<g>
</g>
<g>
</g>
<g>
</g>
<g>
</g>
<g>
</g>
<g>
</g>
<g>
</g>
<g>
</g>
<g>
</g>
</svg>
